<svg xmlns="http://www.w3.org/2000/svg" viewBox="0 0 24 24"><path fill="#15803d" fill-opacity=".7" fill-rule="evenodd" d="M2.35 2.94 4.1 13.22v.2l.06.41a63 63 0 0 0 .41 2.78q.14.72.24.99l.03.1c.16.67.4 1.22.67 1.83l.25.59c.35.85.67 1.79.67 2.99a.88.88 0 0 1-1.76 0c0-.86-.22-1.56-.54-2.32l-.21-.49c-.27-.62-.58-1.33-.78-2.14a9 9 0 0 1-.31-1.23c-.09-.49-.18-1.04-.25-1.56l-.18-1.34-.05-.42v-.12l-.01-.02L.62 3.22v-.03a2.8 2.8 0 0 1 5.53-.85l1.03 5.04a2.6 2.6 0 0 1 2.76.07 2.6 2.6 0 0 1 3.51-.58 2.63 2.63 0 0 1 4.7 1.62v2.52l.4-.4a2.83 2.83 0 0 1 4.24.24c.81 1.02.83 2.46.05 3.5v.02l-4.22 5.38a6 6 0 0 0-1.06 3.38.88.88 0 0 1-1.76 0c0-1.46.48-3.25 1.43-4.47l4.2-5.37c.3-.4.29-.96-.03-1.35a1.1 1.1 0 0 0-1.63-.09l-1.9 1.9a.88.88 0 0 1-1.48-.44 2.7 2.7 0 0 1-2.34-.27 2.6 2.6 0 0 1-3.51.58A2.63 2.63 0 0 1 5.84 12V9.75L4.4 2.68v-.04a1.04 1.04 0 0 0-1.03-.88c-.63 0-1.12.56-1.04 1.18Zm7.03 6.72c0-.49-.39-.88-.88-.88s-.88.39-.88.88V12c0 .49.39.88.88.88s.88-.39.88-.88zm1.75 1.75c0 .49.39.88.88.88s.88-.39.88-.88V9.06a.88.88 0 0 0-1.76.01zm3.51-2.33v1.75c0 .49.39.88.88.88s.88-.39.88-.88V8.49c0-.49-.39-.88-.88-.88s-.88.39-.88.88m0 .58v-.59z"/></svg>